<svg height="100.807" viewBox="0 0 200 100.807" width="200" xmlns="http://www.w3.org/2000/svg"><g fill="#fff" transform="translate(-8.8 -5)"><path d="m74.4 33.1v-2.4h20v2.4zm0 4.3v-2.4h20v2.4zm0 4.2v-2.4h20v2.4zm30.7 0a4.671 4.671 0 0 1 -1.7-.3 4.311 4.311 0 0 1 -2.3-2.3 4.671 4.671 0 0 1 -.3-1.7v-6.6h2.4v6.5a1.2 1.2 0 0 0 .2.8 3.111 3.111 0 0 0 .4.6 2.092 2.092 0 0 0 .6.4 1.884 1.884 0 0 0 .8.2h11.1a1.2 1.2 0 0 0 .8-.2 1.981 1.981 0 0 0 1.1-1.1 1.884 1.884 0 0 0 .2-.8v-6.4h2.4v6.5a4.671 4.671 0 0 1 -.3 1.7 4.311 4.311 0 0 1 -2.3 2.3 4.671 4.671 0 0 1 -1.7.3h-11.4zm37.6 0-2.7-2.6h-10.7v2.6h-2.4v-5h16.2a.952.952 0 0 0 .7-.2 2.092 2.092 0 0 0 .6-.4 1.275 1.275 0 0 0 .4-.6 1.7 1.7 0 0 0 0-1.4 1.591 1.591 0 0 0 -.9-.9 1.854 1.854 0 0 0 -.7-.2h-16.2v-2.2h16.2a4.146 4.146 0 0 1 1.6.3 4.419 4.419 0 0 1 2.2 2.2 4.529 4.529 0 0 1 .3 1.6 3.653 3.653 0 0 1 -.3 1.5 5.669 5.669 0 0 1 -.8 1.3 3.449 3.449 0 0 1 -1.2.9 4.191 4.191 0 0 1 -1.5.4l2.7 2.7zm33.4 0h-16.3l2.3-2.3h8.4l-5.6-5.5-8 7.7h-3.3l11.2-10.8zm4.5 0v-10.9h2.4v8.5h17.7v2.4z" transform="translate(-1 -.143)"/><path d="m206 49.279-129.842 1.592a.428.428 0 0 1 -.4-.4c0-.1 0-.2.2-.3s.4-.1.5.1a.366.366 0 0 1 .1.3l-2.688 12.737-2.985 13.732-2.985 13.731-3.084 13.729a1.7 1.7 0 0 1 -1.393 1.294 1.586 1.586 0 0 1 -1.791-1.393l-3.383-24.575-3.383-24.577-6.666-49.055h1.89l-8.954 58.606c0 .2-.2.3-.3.4a.38.38 0 0 1 -.5-.3l-5.667-15.522.3.2-26.169-.299 26.068-.3c.1 0 .2.1.3.2l5.968 15.421-.9.1 7.964-58.8a1.176 1.176 0 0 1 .9-.9.969.969 0 0 1 .995.8l7.363 49.055 3.681 24.478 3.681 24.577-3.184-.1 2.885-13.731 2.979-13.736 2.985-13.731 2.985-13.731a1.706 1.706 0 0 1 1.691-1.294z"/><path d="m85.3 64.7-.6 1.6h-1.9l3.5-7.9h1.9l3.3 7.9h-1.9l-.6-1.6zm1.8-4.4-1.3 3h2.4zm11 4.4v1.6h-5.1v-7.9h1.7v6.3zm8.8-2.4v3a6.329 6.329 0 0 1 -3.2 1 4 4 0 0 1 -4.2-4 4.085 4.085 0 0 1 4.3-4 4.717 4.717 0 0 1 3.2 1.2l-1.2 1.3a3.1 3.1 0 0 0 -2.2-.9 2.311 2.311 0 0 0 -2.4 2.4 2.432 2.432 0 0 0 2.4 2.4 3.73 3.73 0 0 0 1.6-.4v-2zm10.2 0a4.058 4.058 0 0 1 -4.2 4 4 4 0 0 1 -4.2-4 4.058 4.058 0 0 1 4.2-4 4.123 4.123 0 0 1 4.2 4zm-6.6 0a2.432 2.432 0 0 0 2.4 2.4 2.5 2.5 0 0 0 2.4-2.4 2.311 2.311 0 0 0 -2.4-2.4 2.432 2.432 0 0 0 -2.4 2.4zm12.2 1.7h-1.7v2.2h-1.7v-7.9h3.5c2 0 3.2 1 3.2 2.7a3.121 3.121 0 0 1 -1.4 2.6l1.7 2.6h-2zm-.2-1.4c1 0 1.6-.4 1.6-1.3s-.6-1.3-1.6-1.3h-1.6v2.6zm5.6 3.7v-7.9h1.7v7.9zm7.7-6.3v6.3h-1.7v-6.3h-2.4v-1.6h6.6v1.6zm9.5 6.3v-3h-3.6v3h-1.7v-7.9h1.7v3.3h3.6v-3.3h1.7v7.9zm11.3 0v-5.3l-2 4.5h-1.2l-2-4.5v5.3h-1.6v-7.9h2l2.3 4.7 2.3-4.7h2v7.9zm4.1 0v-7.9h1.7v7.9zm11.1-6.6-1 1.3a2.966 2.966 0 0 0 -2-1 2.4 2.4 0 0 0 0 4.8 3.315 3.315 0 0 0 2-.9l1 1.2a4.48 4.48 0 0 1 -3.2 1.4 4.058 4.058 0 0 1 -4.2-4 3.866 3.866 0 0 1 4.2-3.9 3.567 3.567 0 0 1 3.2 1.1zm3.3 5-.6 1.6h-1.9l3.5-7.9h1.9l3.3 7.9h-1.9l-.6-1.6zm1.9-4.4-1.3 3h2.4zm11.1 4.4v1.6h-5.2v-7.9h1.7v6.3zm7 0v1.6h-5.2v-7.9h1.7v6.3zm5.6 1.6h-1.7v-2.4l-2.9-5.3h1.7l2 3.5 2-3.5h1.7l-2.9 5.3zm-49.8 2.4c2 0 3.2 1 3.2 2.7 0 1.9-1.2 2.9-3.2 2.9h-1.6v2.2h-1.7v-7.9zm-1.4 4.1h1.4c1 0 1.6-.4 1.6-1.3s-.6-1.3-1.6-1.3h-1.4zm8.4-2.7v1.7h3.7v1.4h-3.7v1.8h4.3v1.4h-6v-7.9h5.9v1.4zm10 4.2h-1.7v2.2h-1.7v-7.9h3.5c2 0 3.2 1 3.2 2.7a3.121 3.121 0 0 1 -1.4 2.6l1.7 2.6h-2zm-.1-1.5c1 0 1.6-.4 1.6-1.3s-.6-1.3-1.6-1.3h-1.6v2.6zm7.3-2.7v1.9h3.6v1.4h-3.6v3h-1.7v-7.9h5.6v1.4zm7.5 0v1.7h3.7v1.4h-3.7v1.8h4.3v1.4h-6.2v-7.9h5.9v1.4zm13.4-.2-1 1.3a2.966 2.966 0 0 0 -2-1 2.4 2.4 0 1 0 0 4.8 3.315 3.315 0 0 0 2-.9l1 1.2a4.48 4.48 0 0 1 -3.2 1.4 4.058 4.058 0 0 1 -4.2-4 3.866 3.866 0 0 1 4.2-3.9 4.2 4.2 0 0 1 3.2 1.1zm5.2.3v6.3h-1.7v-6.3h-2.5v-1.6h6.6v1.6zm2.7-38.9v3.2h-.8v-3.2h-1.1v-.7h3v.7h-1.1zm5.1 3.1v-2.7l-1.1 2.3h-.5l-1.1-2.3v2.7h-.7v-3.9h.9l1.2 2.4 1.2-2.4h.9v3.9z" transform="translate(-1 -.233)"/></g></svg>